<svg width="207" height="36" viewBox="0 0 207 36" fill="none" xmlns="http://www.w3.org/2000/svg">
<path d="M28.384 26.456C28.384 19.4 20.704 17.576 14.08 15.512C8.512 13.784 5.536 12.488 5.536 8.936C5.536 5.192 8.944 4.04 13.6 4.04C18.784 4.04 23.056 6.536 23.056 12.296H26.992C26.992 6.776 23.584 0.679998 13.6 0.679998C5.248 0.679998 1.6 3.848 1.6 9.032C1.6 15.032 6.448 16.856 13.12 18.872C18.496 20.456 24.448 21.512 24.448 26.648C24.448 30.728 21.136 32.12 15.376 32.12C8.272 32.12 4 30.344 4 22.328H0.0640001C0.0640001 30.248 3.568 35.48 15.376 35.48C25.36 35.48 28.384 31.496 28.384 26.456ZM57.475 35H61.363L50.467 1.16H42.403L31.459 35H35.395L39.619 21.752H53.203L57.475 35ZM40.723 18.392L45.859 2.264H46.963L52.147 18.392H40.723ZM66.0509 35H87.0269V31.64H69.9869V19.736H84.6269V16.376H69.9869V4.52H87.0269V1.16H66.0509V35ZM90.2271 18.056C90.2271 28.04 95.1231 35.48 105.059 35.48C113.795 35.48 118.355 29.864 118.403 18.056H119.507L118.883 22.376V35H122.819V19.592C122.819 17.816 121.907 16.952 119.939 16.952H103.235V20.12H114.803C114.947 28.232 111.779 32.12 105.107 32.12C97.1871 32.12 94.1631 26.36 94.1631 18.056C94.1631 9.8 98.2911 4.04 106.211 4.04C112.883 4.04 115.715 7.688 116.483 13.256H120.419C119.411 5.864 114.707 0.679998 106.211 0.679998C96.4191 0.679998 90.2271 8.12 90.2271 18.056ZM146.971 4.52V1.16H127.915V4.52H135.499V31.64H127.915V35H146.971V31.64H139.435V4.52H146.971ZM178.478 26.456C178.478 19.4 170.798 17.576 164.174 15.512C158.606 13.784 155.63 12.488 155.63 8.936C155.63 5.192 159.038 4.04 163.694 4.04C168.878 4.04 173.15 6.536 173.15 12.296H177.086C177.086 6.776 173.678 0.679998 163.694 0.679998C155.342 0.679998 151.694 3.848 151.694 9.032C151.694 15.032 156.542 16.856 163.214 18.872C168.59 20.456 174.542 21.512 174.542 26.648C174.542 30.728 171.23 32.12 165.47 32.12C158.366 32.12 154.094 30.344 154.094 22.328H150.158C150.158 30.248 153.662 35.48 165.47 35.48C175.454 35.48 178.478 31.496 178.478 26.456ZM206.628 1.16H179.22V4.52H191.028V35H194.916V4.52H206.628V1.16Z" fill="white"/>
</svg>
